<svg version="1.1" id="Layer_1" xmlns="http://www.w3.org/2000/svg" x="0" y="0" viewBox="0 0 330 330" style="enable-background:new 0 0 330 330" xml:space="preserve"><g id="XMLID_228_"><path id="XMLID_229_" d="m236.95 152.281-108-67.501A15 15 0 0 0 106 97.5v135a15.001 15.001 0 0 0 22.949 12.72l108-67.499a15 15 0 0 0 .001-25.44z"/><path id="XMLID_230_" d="M165 0C74.019 0 0 74.019 0 165s74.019 165 165 165 165-74.019 165-165S255.981 0 165 0zm0 300c-74.44 0-135-60.561-135-135S90.56 30 165 30s135 60.561 135 135-60.561 135-135 135z"/></g></svg>