

<svg strokeMiterlimit="10" style="fill-rule:nonzero;clip-rule:evenodd;stroke-linecap:round;stroke-linejoin:round;" version="1.1" viewBox="0 0 1024 1024" xmlSpace="preserve" xmlns="http://www.w3.org/2000/svg" xmlnsVectornator="http://vectornator.io" xmlnsXlink="http://www.w3.org/1999/xlink">

<g className="Layer-2">
<path d="M342.052 341.06L342.052 341.06C356.594 346.6 363.884 362.859 358.335 377.376L266.064 618.784C260.515 633.302 244.229 640.58 229.687 635.04L229.687 635.04C215.146 629.5 207.856 613.241 213.404 598.724L305.675 357.316C311.224 342.798 327.511 335.521 342.052 341.06Z" fill="#000000" fillRule="evenodd" opacity="1" stroke="none"/>
<path d="M328.063 328.578L328.063 328.578C344.114 322.497 362.302 329.933 368.686 345.185L472.972 594.347C479.356 609.6 471.519 626.893 455.467 632.974L455.467 632.974C439.416 639.054 421.228 631.619 414.845 616.366L310.558 367.205C304.174 351.952 312.011 334.658 328.063 328.578Z" fill="#000000" fillRule="evenodd" opacity="1" stroke="none"/>
<path d="M291.953 521.606L390.312 521.606C403.472 521.606 414.14 531.536 414.14 543.786L414.14 543.786C414.14 556.036 403.472 565.966 390.312 565.966L291.953 565.966C278.794 565.966 268.126 556.036 268.126 543.786L268.126 543.786C268.126 531.536 278.794 521.606 291.953 521.606Z" fill="#000000" fillRule="evenodd" opacity="1" stroke="none"/>
</g>
<g className="e" >
<path d="M542.415 352.409L542.415 352.409C558.293 352.409 571.165 364.859 571.165 380.217L571.165 603.569C571.165 618.927 558.293 631.378 542.415 631.378L542.415 631.378C526.537 631.378 513.666 618.927 513.666 603.569L513.666 380.217C513.666 364.859 526.537 352.409 542.415 352.409Z" fill="#000000" fillRule="evenodd" opacity="1" stroke="none"/>
</g>
<g className="top" >
<path d="M547.377 351.8L705.194 351.8C717.259 351.8 727.04 361.607 727.04 373.705L727.04 373.705C727.04 385.802 717.259 395.609 705.194 395.609L547.377 395.609C535.312 395.609 525.531 385.802 525.531 373.705L525.531 373.705C525.531 361.607 535.312 351.8 547.377 351.8Z" fill="#000000" fillRule="evenodd" opacity="1" stroke="none"/>
</g>
<g className="mid" >
<path d="M557.779 464.061L695.595 464.061C707.525 464.061 717.196 473.732 717.196 485.662L717.196 485.662C717.196 497.591 707.525 507.262 695.595 507.262L557.779 507.262C545.849 507.262 536.179 497.591 536.179 485.662L536.179 485.662C536.179 473.732 545.849 464.061 557.779 464.061Z" fill="#000000" fillRule="evenodd" opacity="1" stroke="none"/>
</g>
<g className="bottom" >
<path d="M543.563 585.145L705.593 585.145C720.066 585.145 731.799 595.565 731.799 608.419L731.799 608.419C731.799 621.272 720.066 631.692 705.593 631.692L543.563 631.692C529.09 631.692 517.357 621.272 517.357 608.419L517.357 608.419C517.357 595.565 529.09 585.145 543.563 585.145Z" fill="#000000" fillRule="evenodd" opacity="1" stroke="none"/>
</g>
</svg>
