<?xml version="1.0" encoding="UTF-8" standalone="no"?>
<!DOCTYPE svg PUBLIC "-//W3C//DTD SVG 1.1//EN" "http://www.w3.org/Graphics/SVG/1.1/DTD/svg11.dtd">

<!-- Created with Vectornator (http://vectornator.io/) -->
<svg height="100%" stroke-miterlimit="10" style="fill-rule:nonzero;clip-rule:evenodd;stroke-linecap:round;stroke-linejoin:round;" version="1.1" viewBox="0 0 10 10" width="100%" xml:space="preserve" xmlns="http://www.w3.org/2000/svg" xmlns:vectornator="http://vectornator.io" xmlns:xlink="http://www.w3.org/1999/xlink">

<defs>
<clipPath id="TextBounds">
<rect height="0.978535" width="23.3" x="5.72428" y="9.4533"/>
</clipPath>
</defs>
<g id="Layer-1" vectornator:layerName="Layer 1">
<g fill="#ff6868" fill-opacity="0.863665" opacity="1" stroke="none">
<path clip-path="url(#TextBounds)" d="M15.9058 43.1793C15.6858 43.1793 15.5208 43.0968 15.4108 42.9318C15.3008 42.7668 15.2458 42.5633 15.2458 42.3213L15.2458 39.3843L15.2458 36.4473L15.1798 31.1673C15.1138 28.8133 15.0808 27.0533 15.0808 25.8873L15.1138 24.9303L15.1138 22.7853C15.1138 20.4093 15.0918 19.2213 15.0478 19.2213L11.3188 19.2213C11.1428 19.2213 10.9833 19.1773 10.8403 19.0893C10.6973 19.0013 10.6258 18.8803 10.6258 18.7263C10.6258 18.5503 10.6588 18.4293 10.7248 18.3633C10.7908 18.2973 10.9668 18.2423 11.2528 18.1983C11.5608 18.1323 12.0008 18.0993 12.5728 18.0993L15.8728 18.0993L19.5028 18.0663C19.7668 18.0663 19.9483 18.1103 20.0473 18.1983C20.1463 18.2863 20.1958 18.4293 20.1958 18.6273C20.1958 18.9573 19.9868 19.1223 19.5688 19.1223L18.0838 19.1223L16.6318 19.1223L16.3348 19.1553L16.3678 21.0693L16.3678 23.6433L16.3678 37.0413L16.3678 39.7803L16.4008 42.2223L16.4008 42.2883C16.4008 42.4643 16.3898 42.6128 16.3678 42.7338C16.3458 42.8548 16.3018 42.9483 16.2358 43.0143C16.1698 43.1243 16.0598 43.1793 15.9058 43.1793Z" fill-rule="evenodd"/>
<path clip-path="url(#TextBounds)" d="M10.3948 85.0233C9.99878 85.0233 9.77878 84.7923 9.73478 84.3303L9.73478 83.9013C9.75678 83.7913 9.76778 83.6593 9.76778 83.5053L9.63578 83.3733C9.81178 82.9113 9.89978 82.4603 9.89978 82.0203C9.89978 81.5143 9.86678 80.7883 9.80078 79.8423L9.73478 77.6643C9.73478 76.5643 9.76778 74.9143 9.83378 72.7143C9.92178 70.7563 9.96578 69.0953 9.96578 67.7313L9.89978 65.7513C9.85578 65.1573 9.83378 64.4973 9.83378 63.7713C9.83378 63.4413 9.91078 63.2048 10.0648 63.0618C10.2188 62.9188 10.4608 62.8473 10.7908 62.8473C11.0108 62.8473 11.1868 62.9133 11.3188 63.0453C11.3628 63.0673 11.6818 63.1113 12.2758 63.1773C12.8258 63.2433 13.2988 63.3423 13.6948 63.4743C14.1128 63.6063 14.3218 63.7713 14.3218 63.9693C14.3218 64.1893 14.1128 64.4093 13.6948 64.6293C12.4408 64.2113 11.5498 64.0023 11.0218 64.0023L10.8568 64.2003C10.8788 64.3983 10.8898 64.8713 10.8898 65.6193C10.8898 66.5653 10.8678 67.4123 10.8238 68.1603C10.8018 68.9303 10.7908 69.7883 10.7908 70.7343C10.7908 71.3503 10.9448 71.6583 11.2528 71.6583L11.7808 71.6253C11.9568 71.6033 12.1438 71.5923 12.3418 71.5923C13.1998 71.5923 13.6288 71.7903 13.6288 72.1863C13.6288 72.4283 13.5738 72.6318 13.4638 72.7968C13.3538 72.9618 13.1888 73.0443 12.9688 73.0443C12.6388 73.0443 12.3858 72.9563 12.2098 72.7803L11.1538 72.6153L10.9888 72.6153L10.8238 72.7803L10.8238 72.8793C10.8678 73.2533 10.8898 74.1223 10.8898 75.4863C10.8898 76.3443 10.8788 77.1253 10.8568 77.8293L10.8238 80.1723C10.8238 81.0303 10.8568 81.9103 10.9228 82.8123C10.9448 83.3183 11.0548 83.6538 11.2528 83.8188C11.4508 83.9838 11.8138 84.0663 12.3418 84.0663L12.9358 84.0333C13.1338 84.0113 13.3538 84.0003 13.5958 84.0003C14.2338 84.0003 14.5528 84.1433 14.5528 84.4293C14.5528 84.8253 14.0688 85.0233 13.1008 85.0233L10.3948 85.0233Z" fill-rule="evenodd"/>
<path clip-path="url(#TextBounds)" d="M18.2488 84.6933C17.8308 84.6933 17.6218 84.5613 17.6218 84.2973C17.6218 83.1973 17.9298 81.4813 18.5458 79.1493C19.1618 76.8393 19.4698 75.1123 19.4698 73.9683C19.4698 73.3523 19.1728 71.6803 18.5788 68.9523C17.9848 66.2243 17.5888 64.7393 17.3908 64.4973L17.3908 64.3653C17.4128 64.3433 17.4238 64.3213 17.4238 64.2993C17.4238 64.2773 17.4238 64.2663 17.4238 64.2663C17.4238 64.1343 17.3688 63.9803 17.2588 63.8043C17.1708 63.5403 17.1268 63.4083 17.1268 63.4083C17.1268 63.3203 17.1983 63.2433 17.3413 63.1773C17.4843 63.1113 17.6108 63.0783 17.7208 63.0783C17.8968 63.0783 18.0453 63.2103 18.1663 63.4743C18.2873 63.7383 18.3698 64.0133 18.4138 64.2993L18.4468 65.0583C18.7548 65.9603 19.0298 67.0603 19.2718 68.3583C19.5578 69.8103 19.7888 70.8333 19.9648 71.4273C20.0968 71.1633 20.2673 70.3053 20.4763 68.8533C20.6853 67.4013 20.8228 66.3123 20.8888 65.5863C21.0208 63.8043 21.1638 62.8913 21.3178 62.8473C21.3178 62.8473 21.4058 62.8253 21.5818 62.7813L21.8458 62.7483L22.1428 63.1443C21.7908 63.6503 21.6148 64.6183 21.6148 66.0483L21.6148 66.2463L21.6478 66.4443L21.6148 66.4773C21.5268 67.2693 21.3068 68.4793 20.9548 70.1073C20.5808 71.9113 20.3938 73.2753 20.3938 74.1993C20.3938 74.5513 20.6798 76.0143 21.2518 78.5883C21.8238 81.1623 22.1978 82.6693 22.3738 83.1093C22.3738 83.1313 22.4288 83.2193 22.5388 83.3733C22.6928 83.6593 22.7698 83.8903 22.7698 84.0663C22.7698 84.1983 22.7203 84.3083 22.6213 84.3963C22.5223 84.4843 22.4068 84.5283 22.2748 84.5283C22.1208 84.5283 21.9778 84.4953 21.8458 84.4293L21.2518 81.9213C20.7238 79.9413 20.3058 78.1043 19.9978 76.4103C19.7338 76.8063 19.4918 77.9503 19.2718 79.8423C19.0518 81.8003 18.8538 83.0103 18.6778 83.4723C18.7218 83.5603 18.7438 83.6923 18.7438 83.8683C18.7438 84.0883 18.7053 84.2808 18.6283 84.4458C18.5513 84.6108 18.4248 84.6933 18.2488 84.6933Z" fill-rule="evenodd"/>
<path clip-path="url(#TextBounds)" d="M15.3778 125.745L15.3448 124.524C15.3228 124.172 15.3118 123.776 15.3118 123.336C15.3118 123.116 15.3228 122.929 15.3448 122.775L15.3778 122.181C15.3778 121.961 15.3338 121.697 15.2458 121.389C15.2458 119.915 15.1358 117.176 14.9158 113.172C14.6958 109.3 14.5748 106.671 14.5528 105.285C13.1888 105.285 12.2758 105.252 11.8138 105.186C11.3738 105.076 11.1538 104.9 11.1538 104.658C11.2638 104.416 11.4728 104.295 11.7808 104.295C12.4408 104.295 13.3978 104.339 14.6518 104.427C15.7958 104.537 16.7528 104.592 17.5228 104.592L18.2158 104.592L18.9088 104.559C19.3048 104.559 19.5028 104.702 19.5028 104.988C19.5028 105.12 19.4313 105.225 19.2883 105.302C19.1453 105.379 18.9748 105.417 18.7768 105.417C18.3368 105.417 17.8748 105.395 17.3908 105.351L15.9718 105.285C15.8838 105.285 15.8398 105.318 15.8398 105.384C15.8178 105.45 15.8068 105.659 15.8068 106.011C15.8068 108.145 15.9388 111.379 16.2028 115.713C16.4448 120.201 16.5658 123.424 16.5658 125.382C16.5658 125.536 16.4723 125.679 16.2853 125.811C16.0983 125.943 15.9168 126.009 15.7408 126.009L15.3778 125.745Z" fill-rule="evenodd"/>
</g>
<path d="M1.84441 4.76415C1.84441 4.76415 2.22052 3.6469 2.42004 3.35448C2.57334 3.12979 2.97643 3.15533 3.03751 3.22317C3.17809 3.37929 2.34624 5.38776 2.34624 5.38776C2.34624 5.38776 1.98562 6.60567 1.7689 6.93298C1.58968 7.20367 1.33113 7.17833 1.26749 7.10766C1.21223 7.04629 1.06701 6.93426 1.1314 6.63661C1.23083 6.17704 1.84441 4.76415 1.84441 4.76415Z" fill="#000000" fill-rule="evenodd" opacity="1" stroke="none"/>
<path d="M3.88063 4.7458C3.88063 4.7458 3.7866 4.46649 3.66763 4.15062C3.54867 3.83476 3.40476 3.48234 3.305 3.33613C3.22835 3.22378 3.08925 3.17399 2.96168 3.16077C2.83411 3.14755 2.71807 3.17089 2.68753 3.20481C2.61724 3.28287 2.79005 3.82402 2.98044 4.34565C3.17083 4.86729 3.3788 5.36941 3.3788 5.36941C3.3788 5.36941 3.46895 5.67388 3.5862 6.01928C3.70344 6.36467 3.84778 6.75097 3.95614 6.91463C4.04575 7.04997 4.15519 7.11131 4.25019 7.12998C4.34518 7.14864 4.42573 7.12464 4.45755 7.08931C4.48518 7.05862 4.5353 7.01527 4.57046 6.94238C4.60563 6.8695 4.62583 6.76708 4.59363 6.61825C4.54392 6.38847 4.36567 5.92036 4.19985 5.50969C4.03402 5.09902 3.88063 4.7458 3.88063 4.7458Z" fill="#000000" fill-rule="evenodd" opacity="1" stroke="none"/>
<path d="M2.29431 5.54375L3.43394 5.54019L3.62768 6.13057L2.09211 6.13835L2.29431 5.54375Z" fill="#000000" fill-rule="evenodd" opacity="1" stroke="none"/>
<path d="M5.23632 6.60848C5.19139 5.65548 5.19629 3.43201 5.33401 3.28445C5.44213 3.1686 5.99905 3.2062 5.99905 3.2062C5.99905 3.2062 6.07065 7.05956 5.99744 7.05956C5.92423 7.05956 5.26026 7.11649 5.23632 6.60848Z" fill="#000000" fill-rule="evenodd" opacity="1" stroke="none" vectornator:blendMode="screen"/>
<path d="M5.99676 3.5091C5.99676 3.49454 5.97612 3.20606 5.97612 3.20606C5.97612 3.20606 7.59964 3.18667 7.92764 3.20843C7.96752 3.21107 8.19601 3.2539 8.15871 3.49538C8.15644 3.51008 8.16821 3.77496 7.89475 3.79672C7.34926 3.84012 5.99228 3.80775 5.99228 3.80775C5.99228 3.80775 5.99676 3.52783 5.99676 3.5091Z"  class="top" fill-rule="evenodd" opacity="1" stroke="none"/>
<path d="M6.00352 6.74249C6.00352 6.72792 5.98288 6.43944 5.98288 6.43944C5.98288 6.43944 7.60639 6.42006 7.9344 6.44181C7.97427 6.44446 8.20277 6.48728 8.16546 6.72877C8.16319 6.74346 8.17497 7.00834 7.9015 7.0301C7.35602 7.0735 5.99903 7.04113 5.99903 7.04113C5.99903 7.04113 6.00352 6.76121 6.00352 6.74249Z"  class='low' fill-rule="evenodd" opacity="1" stroke="none"/>
<path d="M5.80497 5.04344C5.80497 5.02888 5.78433 4.7404 5.78433 4.7404C5.78433 4.7404 7.40785 4.72101 7.73585 4.74277C7.77573 4.74541 8.00423 4.78824 7.96692 5.02973C7.96465 5.04442 7.97642 5.3093 7.70296 5.33106C7.15747 5.37446 5.80049 5.34209 5.80049 5.34209C5.80049 5.34209 5.80497 5.06217 5.80497 5.04344Z"  class='mid' fill-rule="evenodd" opacity="1" stroke="none"/>
</g>
</svg>
