
<svg strokeMiterlimit="10" version="1.1" viewBox="0 0 10 10" xmlSpace="preserve" xmlns="http://www.w3.org/2000/svg" xmlnsVectornator="http://vectornator.io" xmlnsXlink="http://www.w3.org/1999/xlink">



<g className="Layer2">
<path d="M2.16362 2.27113L2.16362 2.27113C2.37925 2.1919 2.62053 2.2966 2.70252 2.50497L4.3193 6.61392C4.40129 6.8223 4.29294 7.05544 4.07731 7.13467L4.07731 7.13467C3.86167 7.2139 3.62039 7.10921 3.5384 6.90083L1.92163 2.79188C1.83964 2.58351 1.94798 2.35036 2.16362 2.27113Z"  fillRule="evenodd"  stroke="none"/>
<path d="M2.43135 2.28267L2.43135 2.28267C2.64795 2.35295 2.76166 2.57162 2.68533 2.77106L1.12769 6.84091C1.05136 7.04036 0.813894 7.14506 0.597297 7.07477L0.597297 7.07477C0.380699 7.00448 0.266993 6.78582 0.343325 6.58638L1.90096 2.51653C1.97729 2.31708 2.21476 2.21238 2.43135 2.28267Z"  fillRule="evenodd"  stroke="none"/>
<path d="M1.33805 5.36973L3.18034 5.36973C3.36046 5.36973 3.50646 5.51574 3.50646 5.69585L3.50646 5.69585C3.50646 5.87596 3.36046 6.02197 3.18034 6.02197L1.33805 6.02197C1.15794 6.02197 1.01193 5.87596 1.01193 5.69585L1.01193 5.69585C1.01193 5.51574 1.15794 5.36973 1.33805 5.36973Z"  fillRule="evenodd"  stroke="none"/>
</g>
<g className="Layer3">
<path d="M5.38949 2.3377L5.38949 2.3377C5.63002 2.3377 5.825 2.52833 5.825 2.76347L5.825 6.68899C5.825 6.92414 5.63002 7.11476 5.38949 7.11476L5.38949 7.11476C5.14897 7.11476 4.95398 6.92414 4.95398 6.68899L4.95398 2.76347C4.95398 2.52833 5.14897 2.3377 5.38949 2.3377Z"  fillRule="evenodd"  stroke="none"/>
</g>
<g className="Layer4">
<path d="M9.27404 4.70666L9.27404 4.70666C9.27911 4.9726 9.10871 5.19327 8.89345 5.19953L5.36502 5.30218C5.14976 5.30844 4.97115 5.09793 4.96608 4.83199L4.96608 4.83199C4.96101 4.56604 5.1314 4.34538 5.34667 4.33912L8.87509 4.23646C9.09035 4.2302 9.26897 4.44072 9.27404 4.70666Z"  fillRule="evenodd"  stroke="none"/>
</g>
<g className="Layer5">
<path d="M5.39435 6.23185L9.27767 6.23185C9.52359 6.23185 9.72295 6.4309 9.72295 6.67645L9.72295 6.67645C9.72295 6.92199 9.52359 7.12105 9.27767 7.12105L5.39435 7.12105C5.14842 7.12105 4.94907 6.92199 4.94907 6.67645L4.94907 6.67645C4.94907 6.4309 5.14842 6.23185 5.39435 6.23185Z"  fillRule="evenodd"  stroke="none"/>
</g>
<g className="Layer6">
<path d="M5.37026 2.34883L9.34565 2.34883C9.55344 2.34883 9.72188 2.53856 9.72188 2.7726L9.72188 2.7726C9.72188 3.00664 9.55344 3.19637 9.34565 3.19637L5.37026 3.19637C5.16247 3.19637 4.99403 3.00664 4.99403 2.7726L4.99403 2.7726C4.99403 2.53856 5.16247 2.34883 5.37026 2.34883Z"  fillRule="evenodd"  stroke="none"/>
</g>
</svg>
